<svg width="26" height="28" viewBox="0 0 26 28" fill="none" xmlns="http://www.w3.org/2000/svg">
<path fill-rule="evenodd" clip-rule="evenodd" d="M14.2875 2.23259C15.2753 1.02638 16.9703 0.100093 18.4205 0C18.6636 1.64899 17.9921 3.26406 17.1046 4.4058C16.1559 5.63236 14.5187 6.5807 12.9342 6.5315C12.6452 4.95207 13.3864 3.32683 14.2875 2.23259ZM18.7539 6.53333C20.684 6.53333 22.7278 7.57732 24.182 9.37626C19.4145 11.9705 20.1868 18.7283 25.0041 20.5378C24.3418 21.9952 24.024 22.645 23.1699 23.936C21.9784 25.7367 20.3005 27.9805 18.2177 27.9963C17.3615 28.0052 16.7999 27.7496 16.1942 27.474C15.4923 27.1545 14.7313 26.8082 13.3845 26.8157C12.045 26.8222 11.2719 27.1643 10.5603 27.4791C9.93908 27.7539 9.36479 28.008 8.50153 27.9998C6.42051 27.9823 4.82955 25.9574 3.63812 24.1567C0.308838 19.1242 -0.0427341 13.2159 2.01165 10.0734C3.47298 7.84182 5.77773 6.53684 7.94221 6.53684C9.0958 6.53684 10.0255 6.86569 10.9115 7.17908C11.7179 7.4643 12.4881 7.73672 13.3578 7.73672C14.1626 7.73672 14.8243 7.48802 15.546 7.21674C16.4119 6.89129 17.3643 6.53333 18.7539 6.53333Z" fill="#495567"/>
</svg>
