<svg width="25" height="24" viewBox="0 0 25 24" fill="none" xmlns="http://www.w3.org/2000/svg">
<path d="M23.4123 0H2.0623C1.3303 0 0.737305 0.593 0.737305 1.325V22.676C0.737305 23.407 1.3303 24 2.0623 24H13.5573V14.706H10.4293V11.084H13.5573V8.413C13.5573 5.313 15.4503 3.625 18.2163 3.625C19.5413 3.625 20.6793 3.724 21.0113 3.768V7.008L19.0933 7.009C17.5893 7.009 17.2983 7.724 17.2983 8.772V11.085H20.8853L20.4183 14.707H17.2983V24H23.4143C24.1443 24 24.7373 23.407 24.7373 22.675V1.325C24.7373 0.593 24.1443 0 23.4123 0Z" fill="#FCB72B"/>
</svg>
