<svg width="25" height="24" viewBox="0 0 25 24" fill="none" xmlns="http://www.w3.org/2000/svg">
<path fill-rule="evenodd" clip-rule="evenodd" d="M12.7373 0C9.4783 0 9.0703 0.014 7.7903 0.072C3.4323 0.272 1.0103 2.69 0.810305 7.052C0.751305 8.333 0.737305 8.741 0.737305 12C0.737305 15.259 0.751305 15.668 0.809305 16.948C1.0093 21.306 3.4273 23.728 7.7893 23.928C9.0703 23.986 9.4783 24 12.7373 24C15.9963 24 16.4053 23.986 17.6853 23.928C22.0393 23.728 24.4673 21.31 24.6643 16.948C24.7233 15.668 24.7373 15.259 24.7373 12C24.7373 8.741 24.7233 8.333 24.6653 7.053C24.4693 2.699 22.0483 0.273 17.6863 0.073C16.4053 0.014 15.9963 0 12.7373 0ZM12.7373 2.163C15.9413 2.163 16.3213 2.175 17.5873 2.233C20.8393 2.381 22.3583 3.924 22.5063 7.152C22.5643 8.417 22.5753 8.797 22.5753 12.001C22.5753 15.206 22.5633 15.585 22.5063 16.85C22.3573 20.075 20.8423 21.621 17.5873 21.769C16.3213 21.827 15.9433 21.839 12.7373 21.839C9.53331 21.839 9.1533 21.827 7.8883 21.769C4.6283 21.62 3.1173 20.07 2.9693 16.849C2.9113 15.584 2.8993 15.205 2.8993 12C2.8993 8.796 2.9123 8.417 2.9693 7.151C3.1183 3.924 4.6333 2.38 7.8883 2.232C9.1543 2.175 9.53331 2.163 12.7373 2.163ZM6.5753 12C6.5753 8.597 9.3343 5.838 12.7373 5.838C16.1403 5.838 18.8993 8.597 18.8993 12C18.8993 15.404 16.1403 18.163 12.7373 18.163C9.3343 18.163 6.5753 15.403 6.5753 12ZM12.7373 16C10.5283 16 8.7373 14.21 8.7373 12C8.7373 9.791 10.5283 8 12.7373 8C14.9463 8 16.7373 9.791 16.7373 12C16.7373 14.21 14.9463 16 12.7373 16ZM17.7023 5.595C17.7023 4.8 18.3473 4.155 19.1433 4.155C19.9383 4.155 20.5823 4.8 20.5823 5.595C20.5823 6.39 19.9383 7.035 19.1433 7.035C18.3473 7.035 17.7023 6.39 17.7023 5.595Z" fill="#FCB72B"/>
</svg>
