<svg width="25" height="28" viewBox="0 0 25 28" fill="none" xmlns="http://www.w3.org/2000/svg">
<path fill-rule="evenodd" clip-rule="evenodd" d="M2.08967 0.237091C2.81443 -0.112337 3.64544 -0.0748034 4.34271 0.344932L18.2146 8.42299L14.2414 12.4147L2.08967 0.237091ZM0.737427 2.42141C0.737427 2.04978 0.819894 1.68872 0.973198 1.36414L13.1223 13.5391L0.975312 25.7437C0.820422 25.426 0.737427 25.0702 0.737427 24.697V2.42141ZM14.243 14.6619L2.11087 26.8517C2.43281 27.0008 2.77537 27.0658 3.11739 27.0658C3.53977 27.0658 3.96109 26.9648 4.34277 26.7354L18.2173 18.6452L14.243 14.6619ZM23.483 11.4907C23.4878 11.4933 23.4931 11.4965 23.4978 11.4996C24.2141 11.9342 24.6418 12.6944 24.6418 13.5328C24.6418 14.3712 24.2141 15.1314 23.4978 15.5664C23.4931 15.5691 19.634 17.8189 19.634 17.8189L15.3616 13.5375L19.6314 9.24766L23.483 11.4907Z" fill="#495567"/>
</svg>
