<svg width="25" height="20" viewBox="0 0 25 20" fill="none" xmlns="http://www.w3.org/2000/svg">
<path d="M24.7373 2.557C23.8543 2.949 22.9053 3.213 21.9093 3.332C22.9263 2.723 23.7073 1.758 24.0743 0.608001C23.1233 1.172 22.0693 1.582 20.9473 1.803C20.0503 0.846001 18.7693 0.248001 17.3533 0.248001C14.1743 0.248001 11.8383 3.214 12.5563 6.293C8.4653 6.088 4.8373 4.128 2.4083 1.149C1.1183 3.362 1.7393 6.257 3.9313 7.723C3.1253 7.697 2.3653 7.476 1.7023 7.107C1.6483 9.388 3.2833 11.522 5.6513 11.997C4.9583 12.185 4.1993 12.229 3.4273 12.081C4.0533 14.037 5.8713 15.46 8.0273 15.5C5.9573 17.123 3.3493 17.848 0.737305 17.54C2.9163 18.937 5.5053 19.752 8.2853 19.752C17.4273 19.752 22.5923 12.031 22.2803 5.106C23.2423 4.411 24.0773 3.544 24.7373 2.557Z" fill="#FCB72B"/>
</svg>
